<?xml version="1.0" standalone="no"?>
<!DOCTYPE svg PUBLIC "-//W3C//DTD SVG 20010904//EN"
 "http://www.w3.org/TR/2001/REC-SVG-20010904/DTD/svg10.dtd">
<svg version="1.0" xmlns="http://www.w3.org/2000/svg"
 width="975.000000pt" height="975.000000pt" viewBox="0 0 975.000000 975.000000"
 preserveAspectRatio="xMidYMid meet">
<metadata>
Created by potrace 1.14, written by Peter Selinger 2001-2017
</metadata>
<g transform="translate(0.000000,975.000000) scale(0.100000,-0.100000)"
fill="#000000" stroke="none">
<path d="M5122 8713 c1 -4 -4 -26 -10 -47 -6 -22 -8 -44 -5 -49 3 -6 1 -7 -4
-4 -11 7 -24 -14 -29 -48 -7 -50 -13 -75 -25 -97 -7 -12 -14 -32 -15 -43 -3
-22 -9 -52 -23 -107 -5 -20 -6 -39 -3 -42 3 -4 0 -6 -6 -6 -7 0 -11 -3 -10 -7
1 -5 -2 -35 -7 -68 -5 -33 -7 -66 -6 -72 1 -7 -2 -13 -7 -13 -5 0 -8 -11 -7
-25 2 -14 -1 -27 -6 -31 -5 -3 -6 -11 -2 -17 12 -19 12 -36 1 -43 -7 -4 -6 -9
2 -14 8 -5 7 -11 -4 -23 -9 -9 -13 -18 -8 -21 4 -2 5 -34 2 -71 -3 -37 -2 -69
2 -71 4 -3 3 -16 -2 -29 -5 -14 -5 -27 -1 -30 5 -3 7 -14 4 -25 -3 -11 0 -27
7 -35 10 -12 10 -15 0 -15 -10 0 -10 -3 0 -15 10 -12 10 -15 0 -15 -9 0 -9 -4
-2 -13 7 -8 7 -18 2 -27 -5 -9 -5 -19 1 -26 6 -7 12 -25 14 -41 2 -15 4 -28 5
-28 1 0 4 -11 6 -25 2 -13 8 -27 12 -30 4 -3 9 -18 10 -35 1 -16 7 -34 12 -39
6 -6 10 -20 10 -32 0 -12 7 -25 16 -28 8 -3 13 -10 9 -15 -3 -5 -1 -12 4 -16
6 -3 8 -12 4 -20 -3 -8 -1 -15 5 -15 6 0 22 -21 38 -47 15 -27 33 -52 41 -56
7 -5 11 -13 7 -18 -3 -6 3 -13 15 -16 13 -3 21 -13 21 -26 0 -11 3 -18 6 -15
3 3 17 -5 31 -18 15 -14 40 -35 56 -47 16 -12 37 -29 46 -37 9 -8 25 -16 35
-18 10 -2 28 -12 39 -23 11 -10 32 -19 46 -19 13 0 21 -3 18 -7 -9 -8 90 -45
126 -47 15 0 27 -6 27 -12 0 -6 15 -10 35 -9 19 1 35 -3 35 -7 0 -5 4 -7 9 -3
5 3 12 1 15 -4 3 -5 15 -7 26 -4 11 3 28 2 37 -2 10 -5 36 -8 58 -9 22 -1 46
-5 53 -9 6 -5 12 -4 12 2 0 10 19 9 38 -2 7 -5 12 -3 12 3 0 6 5 8 12 4 19
-12 140 -13 162 -2 14 7 16 7 11 -2 -6 -9 -3 -9 13 -1 14 8 23 8 27 1 5 -8 11
-8 19 -1 9 7 16 7 24 -1 9 -9 12 -9 12 1 0 7 5 9 10 6 6 -3 10 -2 10 4 0 5 -9
13 -20 16 -11 3 -20 11 -20 16 0 5 -6 9 -14 9 -21 0 -67 26 -59 33 3 4 -1 7
-10 7 -8 0 -22 7 -31 15 -8 9 -19 17 -23 18 -4 1 -7 5 -5 10 1 4 -6 7 -15 7
-10 0 -38 18 -62 40 -24 22 -52 42 -62 45 -11 4 -19 11 -19 16 0 6 -4 7 -10 4
-5 -3 -10 1 -10 9 0 9 -7 16 -16 16 -8 0 -12 5 -9 10 3 6 -1 10 -9 10 -8 0
-23 13 -32 29 -10 17 -20 28 -23 26 -4 -2 -15 3 -26 11 -10 8 -15 14 -11 14 4
0 -7 15 -25 33 -18 17 -36 31 -41 30 -4 -2 -8 6 -8 17 0 11 -5 20 -11 20 -6 0
-17 7 -25 15 -12 12 -12 15 -2 15 8 0 7 4 -4 11 -10 5 -21 9 -24 9 -4 -1 -14
13 -22 30 -8 17 -25 41 -38 53 -13 12 -24 27 -24 33 0 6 -11 21 -25 34 -13 12
-23 26 -20 30 4 7 -31 41 -37 35 -2 -2 -5 6 -5 18 -1 12 -7 23 -13 25 -5 2
-10 10 -10 18 0 8 -4 14 -10 14 -5 0 -10 9 -10 20 0 11 -4 20 -9 20 -5 0 -12
11 -15 24 -3 14 -13 32 -22 40 -8 9 -16 25 -17 36 -1 11 -7 22 -13 24 -7 3
-11 13 -10 22 2 10 -6 26 -16 36 -20 20 -24 43 -5 32 6 -4 1 5 -12 19 -14 15
-21 27 -17 27 5 0 4 6 -1 13 -8 10 -22 48 -27 77 -1 3 -5 11 -9 18 -5 6 -5 17
-2 22 3 6 2 10 -3 10 -5 0 -9 6 -10 13 -1 16 -10 52 -13 52 -1 0 -2 11 -3 25
-1 14 -9 40 -18 57 -9 19 -12 35 -7 39 5 3 6 10 3 16 -4 6 -8 21 -10 32 -2 12
-6 32 -9 46 -4 14 -7 32 -7 40 0 8 -5 21 -11 28 -6 8 -6 12 2 12 7 0 10 4 7 8
-4 7 -13 68 -20 150 -2 18 2 32 8 32 7 0 7 3 1 8 -13 9 -13 62 -1 81 7 10 6
12 -4 6 -10 -6 -12 -4 -7 8 3 9 2 19 -4 22 -5 4 -9 3 -7 -2z"/>
<path d="M6535 8169 c-3 -4 -23 -6 -45 -4 -22 2 -40 0 -40 -5 0 -6 -9 -10 -20
-10 -11 0 -20 -5 -20 -11 0 -8 -5 -7 -16 1 -12 11 -15 11 -12 -1 2 -8 -4 -13
-14 -13 -10 1 -18 -2 -18 -7 0 -5 -7 -9 -16 -9 -8 0 -12 -4 -9 -10 3 -5 -1
-10 -10 -10 -17 0 -26 -7 -80 -56 -19 -17 -37 -29 -41 -25 -4 3 -4 1 0 -6 3
-6 -7 -26 -23 -44 -17 -18 -28 -36 -25 -41 3 -4 0 -8 -5 -8 -6 0 -11 -6 -11
-14 0 -7 -7 -19 -15 -26 -8 -7 -15 -18 -14 -24 2 -17 -12 -56 -20 -56 -4 0 -7
-10 -6 -22 1 -13 -2 -28 -7 -35 -5 -7 -5 -14 2 -18 7 -4 7 -12 -1 -26 -5 -11
-8 -25 -6 -32 2 -7 0 -22 -4 -34 -5 -13 -5 -23 0 -23 5 0 7 -14 5 -32 -2 -17
0 -36 4 -42 5 -6 8 -22 7 -36 -1 -14 3 -33 8 -43 11 -23 19 -56 20 -82 0 -11
4 -22 7 -25 14 -10 61 -92 49 -85 -8 5 -10 4 -5 -3 4 -7 13 -12 20 -12 13 0
30 -35 27 -53 -1 -5 3 -6 8 -3 5 4 25 -14 45 -39 19 -25 37 -45 40 -43 2 2 16
-7 30 -19 15 -13 33 -23 42 -23 8 0 13 -4 10 -9 -3 -5 29 -21 72 -36 42 -16
79 -31 82 -35 6 -8 194 -5 225 3 11 3 26 6 33 6 7 1 10 6 6 13 -5 8 -2 9 10 5
20 -8 106 33 148 71 16 14 31 21 39 17 7 -5 10 -4 6 2 -4 5 4 21 16 34 12 13
21 27 20 31 -2 5 2 8 7 8 6 0 10 7 10 15 0 9 6 12 15 9 11 -5 15 1 15 20 0 24
10 31 35 26 6 -1 5 4 -2 11 -9 9 -9 16 0 33 7 11 15 23 18 26 5 4 17 56 20 85
0 6 6 16 12 24 10 12 9 13 -3 6 -12 -7 -13 -6 -4 6 16 20 12 227 -5 258 -7 12
-11 32 -8 42 3 10 1 17 -4 13 -8 -5 -11 3 -8 22 0 4 -3 10 -8 13 -4 3 -14 23
-22 45 -7 21 -19 45 -27 55 -37 42 -64 80 -64 90 0 6 -5 11 -11 11 -15 0 -39
26 -32 34 4 3 -1 6 -10 6 -9 0 -21 9 -27 20 -6 11 -17 20 -25 20 -8 0 -15 5
-15 11 0 5 -4 7 -10 4 -5 -3 -10 1 -10 10 0 9 -4 14 -9 10 -6 -3 -14 2 -19 11
-5 9 -18 14 -28 12 -10 -2 -23 2 -29 9 -5 7 -20 15 -33 18 -12 2 -27 7 -34 11
-6 4 -27 8 -47 10 -20 1 -36 3 -36 4 0 7 -96 6 -100 -1z"/>
<path d="M8294 7865 c-9 -19 -20 -35 -25 -35 -5 0 -9 -9 -9 -19 0 -10 -7 -21
-15 -25 -8 -3 -15 -12 -15 -21 0 -8 -5 -15 -11 -15 -5 0 -7 -4 -4 -10 3 -5 -1
-10 -10 -10 -9 0 -13 -5 -10 -10 3 -6 -1 -13 -9 -16 -9 -3 -16 -12 -16 -20 0
-7 -10 -20 -22 -28 -12 -9 -19 -16 -15 -16 4 0 -5 -13 -20 -30 -51 -54 -61
-68 -55 -74 3 -3 1 -6 -5 -6 -16 0 -53 -36 -46 -44 4 -4 -3 -9 -15 -13 -12 -3
-22 -9 -22 -13 0 -13 -73 -85 -93 -93 -10 -4 -16 -11 -13 -15 3 -5 -6 -15 -19
-22 -14 -7 -25 -19 -25 -27 0 -7 -6 -12 -12 -11 -7 2 -12 -2 -11 -8 1 -7 -9
-15 -22 -18 -14 -4 -25 -13 -25 -21 0 -14 -12 -20 -33 -16 -5 1 -6 -2 -4 -6 3
-5 -1 -14 -9 -21 -8 -7 -14 -10 -14 -7 0 4 -6 0 -13 -7 -8 -7 -26 -22 -41 -33
-15 -11 -37 -28 -48 -37 -12 -10 -27 -18 -35 -18 -7 0 -13 -4 -13 -10 0 -5
-16 -16 -35 -24 -19 -8 -35 -20 -35 -26 0 -6 -4 -9 -9 -5 -6 3 -18 -3 -28 -13
-10 -10 -25 -18 -33 -17 -8 0 -20 -6 -27 -15 -6 -8 -15 -15 -20 -16 -4 0 -33
-12 -63 -26 -59 -28 -80 -36 -93 -34 -5 0 -13 -7 -18 -16 -5 -9 -16 -15 -23
-12 -8 3 -23 -3 -33 -13 -10 -10 -27 -17 -37 -15 -11 3 -25 -4 -32 -13 -7 -10
-20 -15 -28 -12 -8 3 -20 -1 -27 -9 -6 -8 -14 -12 -17 -9 -3 3 -11 0 -19 -6
-7 -6 -13 -8 -13 -5 0 4 -12 -1 -27 -12 -16 -11 -36 -18 -45 -17 -10 2 -18 -3
-18 -11 0 -7 -6 -11 -14 -8 -8 3 -25 0 -38 -7 -13 -7 -26 -14 -30 -15 -5 -1
-10 -3 -13 -4 -3 -1 -8 -3 -12 -5 -23 -6 -50 -20 -67 -34 -16 -13 -18 -13 -11
-1 7 12 5 12 -11 -1 -10 -9 -36 -22 -56 -29 -21 -6 -38 -15 -38 -19 0 -5 -20
-16 -45 -25 -25 -10 -45 -22 -45 -27 0 -6 -4 -8 -9 -4 -5 3 -12 1 -16 -5 -4
-6 -11 -8 -16 -5 -5 4 -9 -1 -9 -9 0 -9 -8 -16 -17 -16 -24 -1 -95 -55 -85
-65 4 -4 -3 -6 -15 -3 -17 5 -20 2 -16 -11 4 -9 3 -13 -1 -9 -5 4 -20 -4 -34
-18 -15 -13 -30 -24 -35 -24 -4 0 -6 -4 -2 -9 3 -5 -3 -12 -14 -16 -11 -3 -22
-13 -25 -21 -3 -9 -11 -12 -17 -8 -7 4 -9 3 -6 -2 3 -6 -17 -32 -44 -58 -28
-27 -48 -51 -45 -53 2 -3 -7 -18 -22 -33 -42 -44 -51 -57 -45 -64 4 -3 1 -6
-6 -6 -7 0 -10 -4 -7 -9 3 -5 -1 -11 -9 -15 -8 -3 -15 -12 -15 -19 0 -8 -7
-20 -15 -27 -8 -7 -12 -16 -9 -21 3 -5 1 -9 -5 -9 -6 0 -13 -11 -17 -25 -3
-14 -10 -25 -15 -25 -5 0 -8 -4 -7 -9 2 -5 -6 -17 -17 -26 -11 -9 -14 -14 -7
-10 17 9 15 3 -12 -46 -14 -24 -23 -46 -20 -51 3 -4 0 -8 -7 -8 -7 0 -9 -3 -6
-7 4 -3 -1 -15 -10 -26 -10 -11 -12 -17 -5 -13 7 4 5 -6 -6 -26 -10 -18 -18
-41 -16 -51 1 -9 -2 -17 -7 -17 -6 0 -8 -3 -6 -8 3 -4 -2 -23 -12 -42 -9 -19
-16 -47 -16 -62 1 -16 -3 -28 -8 -28 -4 0 -5 -4 -2 -10 3 -5 2 -10 -4 -10 -7
0 -7 -8 -1 -25 8 -20 6 -27 -6 -32 -8 -3 -13 -12 -10 -19 3 -8 0 -14 -6 -14
-7 0 -7 -4 1 -14 7 -8 8 -17 3 -20 -5 -3 -13 -26 -17 -52 -3 -25 -9 -56 -12
-67 -3 -12 -6 -31 -7 -43 -1 -11 -6 -25 -10 -32 -4 -7 -3 -12 3 -12 10 0 8
-31 -4 -49 -3 -5 -1 -13 5 -16 8 -5 7 -11 -1 -21 -11 -14 -16 -313 -5 -359 2
-11 5 -25 5 -32 1 -20 27 -4 27 17 0 10 -5 16 -11 12 -5 -3 -4 1 2 9 7 9 14
24 16 35 1 10 6 25 10 32 5 6 5 12 1 12 -3 0 1 11 10 25 9 14 14 30 11 34 -3
5 0 11 5 13 10 3 17 24 19 55 1 6 8 19 17 27 8 9 12 16 8 16 -3 0 -1 7 6 15 7
8 9 15 5 15 -4 0 -2 7 5 15 7 8 10 15 7 15 -4 0 7 25 24 55 16 30 29 56 29 57
-3 9 15 44 27 51 7 4 13 17 13 28 0 11 7 22 15 25 8 4 13 10 10 14 -3 5 2 16
11 24 8 9 13 16 9 16 -3 0 5 15 19 33 15 19 26 39 26 45 0 6 10 22 23 36 35
39 47 55 47 65 0 5 11 19 25 32 13 13 25 30 25 37 0 6 3 12 8 12 7 0 25 29 38
62 3 10 15 20 25 23 17 6 24 23 20 48 -1 5 3 5 9 2 12 -7 62 40 73 68 3 9 11
17 16 17 6 0 22 11 37 25 15 14 23 25 18 25 -9 0 24 21 56 36 8 4 31 20 50 36
19 16 40 33 46 38 7 5 15 6 18 3 3 -4 16 3 29 14 12 11 32 24 45 28 12 3 22
11 22 16 0 5 3 8 8 8 19 -3 33 2 27 11 -3 6 3 10 14 10 11 0 23 4 26 10 3 5
28 20 56 31 27 12 49 26 49 31 0 5 10 6 23 2 12 -3 19 -3 15 1 -9 10 14 34 28
28 5 -2 21 5 34 17 21 18 29 22 46 19 4 0 10 4 14 10 3 6 17 14 30 16 13 2 27
9 30 15 4 6 17 12 28 13 12 1 22 4 22 8 0 7 39 22 53 20 4 -1 7 3 7 8 0 9 124
73 136 70 4 0 11 6 16 15 5 9 13 14 19 11 5 -4 9 -1 9 5 0 6 5 8 10 5 6 -3 13
1 16 9 3 9 10 13 15 10 5 -3 12 2 15 11 6 13 8 14 15 3 7 -10 9 -9 9 5 0 10 5
15 10 12 6 -3 17 1 26 9 9 9 19 14 24 11 4 -3 11 2 14 11 3 8 10 12 16 9 5 -3
10 -2 10 4 0 6 18 20 40 31 22 11 40 26 40 32 0 6 3 8 7 5 3 -4 13 2 20 13 8
11 18 18 23 15 5 -3 15 3 22 15 7 11 18 20 24 20 7 0 15 7 18 16 4 9 9 14 12
11 4 -3 20 9 38 27 17 18 44 40 59 50 15 9 25 21 22 26 -4 6 1 10 10 10 9 0
13 5 10 10 -3 6 1 10 10 10 8 0 23 13 34 30 10 16 21 27 24 23 4 -3 7 0 7 8 0
9 16 29 35 46 19 17 35 36 35 42 0 6 5 11 11 11 5 0 7 5 4 10 -3 6 2 10 11 10
10 0 14 3 11 7 -4 3 2 12 13 20 11 8 20 20 20 27 0 7 9 21 20 31 11 10 17 22
14 26 -3 5 0 9 5 9 6 0 11 6 11 14 0 8 7 16 15 20 8 3 14 9 13 13 -2 14 19 58
35 72 9 7 13 19 10 27 -3 8 0 14 7 14 6 0 9 4 6 9 -3 4 3 16 14 26 11 10 17
22 14 27 -3 5 0 15 6 23 7 8 10 15 6 15 -4 0 1 11 10 25 9 14 13 25 9 25 -4 0
-2 7 5 15 6 8 9 19 6 24 -4 5 -1 13 6 18 14 9 20 31 21 76 0 15 3 27 7 27 8 0
17 39 23 96 2 17 7 37 12 44 5 9 4 11 -3 6 -7 -4 -12 -3 -12 3 0 5 4 12 9 16
5 3 8 21 6 40 -2 19 1 35 7 35 5 0 6 5 2 11 -4 7 -8 21 -9 33 -4 34 -5 36 -15
36 -5 0 -17 -16 -26 -35z"/>
<path d="M4540 7660 c-6 -11 -8 -20 -4 -20 3 0 1 -7 -6 -15 -7 -8 -9 -15 -4
-15 5 0 2 -6 -7 -13 -9 -7 -16 -16 -17 -20 0 -13 -56 -121 -65 -128 -5 -3 -8
-9 -8 -13 3 -20 0 -26 -9 -21 -5 3 -10 -1 -10 -9 0 -26 -1 -29 -30 -71 -15
-22 -27 -42 -26 -45 0 -3 -9 -16 -21 -29 -12 -13 -20 -29 -16 -34 4 -6 1 -7
-6 -3 -8 5 -14 0 -18 -13 -3 -12 -9 -21 -13 -21 -4 0 -10 -9 -13 -21 -4 -13
-10 -18 -18 -13 -8 4 -10 3 -5 -4 4 -7 2 -12 -3 -12 -6 0 -11 -7 -11 -15 0
-15 -34 -55 -47 -55 -5 0 -8 -5 -8 -11 0 -6 -9 -17 -19 -25 -11 -8 -16 -14
-10 -14 5 -1 -2 -7 -16 -15 -14 -8 -22 -14 -17 -15 9 0 -98 -106 -136 -134
-14 -11 -24 -23 -21 -28 3 -4 -1 -8 -8 -8 -7 0 -30 -16 -50 -35 -20 -19 -39
-35 -42 -35 -3 0 -14 -8 -24 -17 -10 -10 -29 -25 -41 -33 -47 -31 -96 -72
-116 -98 -11 -14 -28 -34 -37 -44 -10 -10 -18 -20 -18 -23 0 -3 0 -10 0 -16 0
-5 -5 -7 -12 -3 -8 5 -9 0 -5 -15 3 -13 3 -20 0 -17 -9 8 -35 -23 -28 -34 3
-5 2 -10 -3 -10 -13 0 -56 -99 -57 -133 -1 -16 -7 -32 -14 -37 -9 -5 -10 -10
-2 -14 7 -5 8 -13 1 -25 -6 -12 -5 -22 3 -31 8 -9 8 -11 1 -6 -16 8 -16 -163
0 -183 9 -12 8 -13 -2 -7 -10 6 -10 1 2 -22 8 -16 13 -32 11 -34 -3 -3 2 -5
10 -5 8 0 15 4 15 9 0 4 6 8 14 8 7 0 25 11 39 24 14 13 28 22 30 19 3 -2 17
6 32 19 15 13 30 23 34 23 4 0 15 8 25 18 10 9 27 22 39 28 22 12 30 18 75 59
12 11 24 20 27 20 3 0 10 0 16 0 5 0 7 5 4 10 -3 6 -1 10 5 10 6 0 32 23 58
50 25 28 52 50 59 50 7 0 13 5 13 10 0 6 11 15 25 22 13 6 22 15 19 19 -3 5 0
9 6 9 6 0 8 5 5 10 -3 6 -1 10 5 10 15 0 40 25 40 40 0 7 7 10 15 6 8 -3 14
-2 14 2 -3 20 2 33 11 27 6 -3 10 -3 10 2 0 4 14 24 30 43 16 19 34 40 40 47
5 7 10 17 10 23 0 6 4 8 10 5 5 -3 12 6 16 20 3 14 10 25 15 25 5 0 9 4 9 10
0 5 8 19 18 30 9 11 16 23 15 25 -2 3 5 14 15 24 32 37 42 50 42 61 0 5 5 10
11 10 6 0 9 6 6 13 -3 7 4 24 14 38 10 13 19 29 19 36 0 6 6 18 13 25 14 14
42 95 40 116 0 6 3 12 9 12 5 0 6 5 3 10 -3 6 -1 10 5 10 6 0 9 4 6 8 -3 5 2
21 10 36 7 16 14 38 14 50 0 13 3 26 8 30 4 4 8 12 8 17 1 5 3 10 4 12 1 1 4
16 5 32 2 17 4 30 5 30 2 0 13 106 14 147 0 21 6 38 11 38 6 0 4 4 -4 9 -10 6
-10 13 -3 28 6 11 7 25 2 33 -5 8 -6 19 -3 24 9 13 10 56 3 56 -4 0 -7 12 -7
28 -1 77 -11 93 -33 52z"/>
<path d="M1434 7407 c-3 -9 -1 -24 6 -32 9 -11 9 -15 1 -15 -7 0 -9 -5 -4 -12
4 -7 8 -20 10 -28 1 -8 6 -16 11 -18 6 -2 7 -12 4 -24 -3 -12 1 -26 9 -32 8
-6 16 -20 17 -31 2 -11 8 -21 12 -23 5 -2 6 -10 3 -18 -3 -8 0 -14 7 -14 6 0
9 -4 6 -9 -3 -5 1 -12 10 -15 8 -3 13 -10 9 -16 -3 -5 4 -19 15 -30 12 -12 19
-28 16 -36 -3 -9 -1 -12 4 -9 6 3 10 -1 10 -9 0 -9 5 -16 10 -16 6 0 15 -11
20 -25 5 -14 14 -25 20 -25 6 0 9 -4 6 -8 -3 -5 4 -15 15 -22 10 -8 19 -20 19
-27 0 -7 5 -13 12 -13 6 0 9 -3 5 -6 -3 -3 11 -22 31 -43 21 -20 39 -40 41
-46 2 -5 6 -9 10 -8 4 1 16 -12 26 -28 11 -16 28 -32 38 -35 9 -3 17 -11 17
-19 0 -8 9 -16 19 -20 14 -4 18 -12 14 -23 -3 -9 -3 -14 1 -10 4 3 22 -8 40
-25 18 -18 57 -54 87 -82 30 -27 47 -46 39 -42 -8 4 -6 2 4 -5 11 -7 28 -21
38 -30 10 -10 21 -18 26 -19 4 0 12 -10 19 -22 6 -12 14 -21 17 -19 16 6 28 0
23 -12 -4 -10 0 -14 13 -11 12 2 21 -3 25 -16 4 -11 9 -18 12 -15 3 2 20 -10
38 -29 19 -18 36 -30 39 -27 3 3 6 0 6 -7 0 -7 4 -10 8 -7 5 3 15 -6 22 -19 7
-13 16 -22 20 -20 4 2 22 -10 41 -27 19 -17 35 -31 37 -30 8 6 22 1 18 -6 -3
-5 7 -15 22 -23 15 -8 29 -16 32 -19 3 -3 25 -21 50 -40 25 -19 47 -38 48 -42
2 -5 10 -8 18 -8 7 0 19 -9 26 -20 7 -11 17 -20 21 -20 13 0 37 -27 30 -33 -3
-3 6 -9 20 -12 14 -4 24 -12 21 -19 -3 -7 11 -25 31 -41 19 -17 35 -38 35 -48
0 -10 4 -16 9 -13 5 3 14 -8 21 -24 7 -17 16 -30 20 -30 4 0 11 -11 14 -25 4
-16 11 -23 18 -19 6 4 8 3 5 -3 -3 -5 3 -24 14 -42 11 -18 16 -30 11 -27 -5 3
-9 -1 -9 -9 0 -8 3 -13 5 -10 8 8 35 -57 36 -87 1 -14 4 -30 9 -34 4 -4 7 -25
7 -46 0 -21 4 -38 8 -38 4 0 9 -37 10 -82 5 -155 7 -178 15 -178 4 0 3 -9 -3
-20 -6 -11 -7 -20 -2 -20 4 0 9 -33 10 -72 1 -72 9 -183 12 -183 1 0 4 -22 6
-49 3 -27 9 -55 15 -62 7 -8 7 -14 -1 -19 -6 -3 -7 -12 -3 -18 4 -7 9 -21 10
-32 2 -10 7 -22 11 -25 4 -3 7 -14 8 -25 2 -30 8 -49 19 -57 6 -4 10 -11 11
-15 2 -19 19 -49 31 -56 7 -5 11 -12 8 -18 -4 -5 1 -9 9 -9 8 0 18 -9 21 -20
3 -11 10 -20 15 -20 5 0 22 -12 39 -26 17 -14 31 -22 31 -18 0 4 5 3 12 -4 7
-7 20 -12 30 -12 10 0 18 -4 18 -8 0 -4 10 -8 22 -9 11 -1 25 -8 29 -15 5 -7
9 -8 9 -3 0 6 9 11 20 11 11 0 20 -4 20 -9 0 -4 5 -5 12 -1 16 10 58 12 64 3
2 -4 18 -4 34 1 19 5 30 5 30 -1 0 -6 6 -7 12 -3 14 9 39 14 85 17 18 1 33 6
33 10 0 5 5 5 10 2 6 -3 10 -1 10 6 0 9 3 9 14 0 10 -8 15 -9 18 -1 2 6 14 12
28 14 14 2 33 6 43 10 9 3 25 9 35 12 9 4 24 8 32 9 8 2 34 10 58 18 23 9 42
14 42 10 0 -3 6 -1 13 5 6 5 23 9 37 8 14 -1 28 3 32 9 10 13 221 14 230 0 5
-6 8 -5 8 4 0 11 3 11 15 1 8 -7 15 -9 15 -5 0 4 7 2 15 -5 8 -7 15 -9 15 -5
0 4 6 2 13 -4 8 -6 17 -8 20 -4 4 3 7 1 7 -6 0 -7 6 -11 14 -8 8 3 20 -1 26
-9 7 -8 21 -14 31 -14 11 0 18 -6 16 -12 -1 -8 6 -12 17 -10 11 2 15 -1 11 -7
-3 -7 2 -11 15 -11 12 0 24 -9 30 -22 5 -13 9 -19 9 -14 1 5 24 -15 52 -44 27
-29 48 -55 45 -58 -3 -3 7 -16 22 -28 15 -13 23 -24 18 -24 -5 0 3 -9 18 -21
14 -11 26 -26 26 -33 0 -7 11 -25 25 -40 14 -15 25 -32 25 -37 0 -15 26 -39
34 -32 3 4 6 -3 6 -13 0 -11 5 -25 12 -32 7 -7 8 -12 3 -12 -4 0 2 -8 13 -19
12 -10 19 -21 15 -25 -3 -3 -1 -6 5 -6 7 0 12 -9 12 -20 0 -11 4 -20 8 -20 5
0 14 -16 22 -35 7 -19 20 -37 27 -40 8 -2 11 -9 8 -15 -3 -5 -1 -10 4 -10 6 0
11 -9 11 -20 0 -11 5 -20 10 -20 6 0 10 -9 10 -20 0 -11 5 -20 10 -20 6 0 10
-9 10 -20 0 -11 5 -20 10 -20 6 0 10 -9 10 -20 0 -11 4 -20 9 -20 9 0 21 -25
21 -43 -1 -4 6 -15 15 -23 8 -9 15 -24 15 -35 0 -10 5 -19 10 -19 6 0 10 -8
10 -18 0 -10 3 -22 7 -26 5 -4 9 -12 9 -17 1 -5 2 -13 3 -17 0 -5 8 -9 16 -9
10 0 12 4 5 12 -6 7 -5 16 2 23 7 7 8 12 3 12 -6 0 -11 42 -12 93 -2 50 -5
124 -7 162 -2 39 -5 94 -7 123 -1 28 -7 52 -12 52 -5 0 -4 7 3 15 7 8 8 15 3
15 -5 0 -9 19 -8 43 0 23 -7 77 -16 119 -9 42 -14 80 -11 83 3 3 0 5 -7 5 -7
0 -11 6 -8 13 2 6 0 21 -6 32 -5 10 -11 33 -13 50 -1 16 -5 37 -7 45 -9 33
-42 117 -76 190 -13 30 -24 58 -23 63 1 4 -2 7 -7 7 -5 0 -11 8 -15 18 -12 38
-83 131 -141 185 -65 60 -69 64 -93 76 -13 7 -20 17 -16 24 4 7 4 9 -1 5 -4
-4 -14 0 -22 10 -8 9 -11 11 -7 3 4 -8 -5 -5 -22 7 -16 11 -38 22 -49 24 -11
2 -23 8 -27 13 -4 6 -11 10 -15 11 -4 0 -15 3 -23 6 -8 4 -24 9 -35 14 -11 4
-26 6 -32 5 -7 -1 -13 2 -13 7 0 5 -13 8 -30 7 -16 -1 -30 1 -30 6 0 5 -3 8
-7 8 -5 -1 -10 0 -13 1 -44 18 -279 14 -364 -6 -17 -4 -37 -7 -44 -5 -8 1 -19
-2 -25 -7 -7 -4 -23 -8 -37 -8 -14 1 -28 -3 -32 -8 -3 -5 -19 -11 -35 -13 -49
-5 -53 -6 -53 -15 0 -5 -4 -7 -9 -4 -5 4 -12 0 -14 -6 -4 -8 -6 -9 -6 -2 -1 9
-11 8 -38 -1 -24 -8 -47 -10 -66 -4 -31 9 -71 39 -62 47 2 3 -3 12 -13 21 -10
10 -17 32 -18 56 -2 51 -8 87 -17 102 -4 6 -3 14 2 17 7 5 8 41 1 41 -1 0 -2
15 -3 33 -1 17 2 32 6 32 5 0 5 6 1 12 -8 13 -13 47 -17 125 -1 24 -5 43 -8
43 -4 0 -7 18 -7 41 -1 22 -5 46 -10 52 -5 7 -8 27 -7 45 1 17 -1 32 -5 32 -4
0 -10 9 -13 20 -3 11 -1 18 3 15 4 -3 3 11 -2 30 -7 20 -16 32 -22 28 -7 -4
-7 -1 1 7 8 9 8 20 -3 45 -7 18 -10 35 -7 39 4 3 1 6 -5 6 -7 0 -12 11 -12 25
0 14 -4 25 -10 25 -5 0 -10 7 -10 16 0 21 -68 156 -83 166 -6 4 -8 10 -4 14 3
4 -1 14 -11 23 -10 9 -29 32 -42 51 -13 19 -34 45 -46 56 -13 12 -20 25 -17
28 4 3 -1 6 -11 6 -9 0 -15 4 -11 9 3 5 -3 12 -12 15 -10 4 -29 22 -43 40 -14
19 -26 33 -28 31 -1 -1 -16 10 -33 26 -19 17 -36 26 -46 22 -11 -4 -14 -2 -9
5 4 7 1 12 -9 12 -9 0 -13 5 -10 10 3 6 0 10 -8 10 -7 0 -23 9 -35 20 -12 11
-31 20 -43 20 -12 0 -19 3 -16 7 9 8 -44 44 -55 37 -5 -3 -24 6 -42 20 -19 14
-36 22 -40 19 -3 -4 -6 0 -6 7 0 7 -3 11 -6 7 -3 -3 -24 5 -45 19 -21 13 -39
21 -39 18 0 -4 -7 -1 -15 6 -8 7 -15 9 -15 4 0 -4 -10 2 -23 14 -12 12 -34 23
-47 24 -14 2 -31 9 -38 16 -8 7 -18 10 -23 7 -5 -4 -9 -2 -9 3 0 8 -23 19 -46
21 -2 0 -12 7 -20 16 -9 8 -24 15 -35 15 -10 0 -19 4 -19 8 0 5 -18 17 -40 27
-22 10 -40 21 -40 25 0 9 -61 36 -72 32 -5 -1 -8 4 -8 11 0 6 -14 18 -31 26
-17 7 -40 23 -51 35 -12 11 -18 14 -14 6 5 -9 2 -8 -7 3 -8 9 -18 17 -23 17
-5 0 -21 11 -36 24 -14 14 -28 23 -30 20 -3 -2 -13 5 -23 16 -10 11 -24 20
-32 20 -7 0 -13 4 -13 8 0 4 -15 16 -32 27 -18 10 -37 23 -43 27 -53 43 -90
68 -101 68 -7 0 -18 8 -23 18 -6 9 -11 14 -11 9 0 -4 -14 6 -31 23 -17 16 -35
27 -40 24 -5 -3 -9 2 -9 11 0 8 -11 21 -25 27 -14 6 -25 15 -25 20 0 5 -12 13
-26 18 -14 6 -22 14 -19 20 3 5 1 10 -5 10 -16 0 -60 47 -52 55 4 4 3 6 -3 5
-20 -4 -36 0 -31 8 2 4 1 14 -4 22 -7 12 -10 12 -16 -3z"/>
<path d="M3157 7408 c-7 -4 -27 -8 -44 -8 -18 0 -33 -5 -33 -11 0 -5 -4 -7
-10 -4 -5 3 -10 1 -10 -5 0 -6 -4 -8 -10 -5 -5 3 -10 1 -10 -4 0 -6 -6 -11
-13 -11 -8 0 -22 -9 -32 -20 -10 -11 -20 -18 -24 -17 -3 2 -19 -9 -34 -25 -15
-15 -24 -28 -20 -28 4 0 3 -4 -3 -8 -14 -9 -78 -122 -70 -122 4 0 -1 -11 -10
-25 -9 -14 -13 -25 -9 -25 4 0 2 -7 -5 -15 -8 -10 -9 -15 -1 -15 7 0 8 -8 2
-23 -10 -25 -8 -80 3 -114 4 -13 3 -23 -2 -23 -6 0 -2 -18 9 -40 10 -21 19
-48 19 -60 0 -11 9 -28 20 -37 11 -10 20 -23 20 -29 0 -17 106 -124 115 -116
3 4 13 -2 21 -12 8 -11 14 -16 14 -10 0 5 5 2 10 -6 5 -8 13 -15 17 -16 18 -2
69 -16 83 -23 8 -4 26 -7 40 -6 14 0 28 -4 32 -10 5 -7 8 -7 8 1 0 6 18 10 43
9 23 -1 47 3 54 8 7 5 17 6 23 2 5 -3 10 -2 10 4 0 10 39 27 53 23 4 -1 10 5
13 13 4 8 12 15 20 15 8 0 14 5 14 11 0 5 4 8 8 5 5 -3 19 8 31 25 12 16 27
27 33 23 6 -4 8 -3 5 3 -4 6 0 16 8 23 8 7 15 17 15 23 0 5 7 15 16 21 8 6 17
20 19 31 2 11 4 22 6 25 1 3 3 10 3 15 1 6 8 21 16 35 18 33 21 185 4 228 -10
25 -10 31 -1 25 9 -5 9 -3 0 9 -7 8 -10 18 -6 21 3 4 -2 7 -12 7 -10 0 -16 3
-12 6 7 8 -21 66 -37 76 -6 4 -11 11 -11 16 0 10 -62 82 -70 82 -3 0 -15 9
-27 20 -12 11 -28 20 -35 20 -8 0 -11 5 -7 12 4 7 3 8 -5 4 -6 -4 -18 -2 -26
4 -8 7 -15 9 -15 4 0 -5 -4 -3 -9 5 -5 7 -25 14 -45 14 -20 1 -36 4 -36 7 0 9
-99 7 -113 -2z"/>
<path d="M2660 5432 c0 -4 -12 -9 -27 -10 -16 -1 -29 -6 -31 -12 -2 -5 -10 -6
-18 -3 -8 3 -24 -3 -36 -13 -14 -12 -18 -14 -13 -4 8 13 7 13 -10 0 -10 -8
-21 -14 -24 -13 -3 1 -26 -7 -51 -18 -25 -11 -49 -19 -53 -18 -5 0 -14 -7 -21
-16 -6 -9 -18 -17 -26 -19 -26 -5 -70 -29 -70 -38 0 -5 -4 -7 -9 -4 -5 4 -23
-5 -40 -20 -18 -15 -36 -22 -43 -18 -7 4 -10 4 -6 -1 5 -5 -7 -17 -25 -28 -17
-11 -38 -28 -45 -38 -7 -11 -19 -19 -25 -19 -7 0 -19 -9 -27 -19 -7 -11 -17
-18 -22 -15 -4 3 -8 0 -8 -5 0 -6 -7 -11 -17 -11 -9 0 -14 -3 -10 -6 3 -3 -15
-27 -41 -52 -26 -25 -46 -49 -45 -54 2 -4 -6 -8 -18 -8 -11 0 -17 -4 -14 -10
3 -5 1 -10 -6 -10 -7 0 -10 -2 -7 -5 3 -3 -12 -24 -33 -45 -22 -22 -39 -44
-39 -50 0 -5 -7 -10 -15 -10 -8 0 -15 -9 -15 -20 0 -11 -7 -23 -15 -26 -8 -4
-15 -12 -15 -20 0 -8 -5 -14 -11 -14 -5 0 -8 -4 -4 -9 3 -5 -7 -19 -21 -30
-15 -12 -23 -21 -19 -21 4 0 1 -7 -6 -16 -7 -9 -14 -23 -15 -31 -2 -8 -10 -23
-18 -32 -9 -10 -13 -21 -9 -24 3 -4 1 -7 -5 -7 -7 0 -12 -9 -12 -19 0 -11 -7
-27 -16 -35 -15 -15 -21 -33 -23 -64 -1 -7 -5 -11 -10 -7 -6 3 -8 -4 -6 -15 2
-11 -4 -25 -14 -32 -11 -8 -17 -22 -15 -35 2 -13 0 -23 -5 -23 -10 0 -25 -54
-24 -87 0 -13 -6 -23 -13 -23 -8 0 -11 -8 -9 -21 2 -12 -2 -34 -11 -50 -8 -16
-12 -29 -8 -29 4 0 1 -7 -6 -15 -9 -11 -9 -15 -1 -15 9 0 9 -5 1 -20 -6 -11
-12 -45 -13 -77 -1 -32 -6 -63 -10 -69 -4 -7 -5 -26 -3 -43 2 -16 -2 -32 -8
-35 -6 -2 -6 -5 -1 -5 6 -1 9 -41 9 -103 -1 -57 2 -108 8 -115 6 -7 5 -14 -2
-18 -8 -5 -8 -11 0 -20 6 -8 10 -22 9 -32 -1 -10 1 -34 5 -53 4 -19 9 -44 11
-55 2 -11 4 -22 5 -25 1 -3 3 -9 4 -15 1 -5 5 -17 8 -25 3 -8 12 -37 19 -65 6
-27 17 -59 23 -70 6 -11 11 -24 12 -30 0 -5 8 -27 17 -48 9 -20 16 -40 16 -44
-1 -3 3 -9 8 -12 5 -3 19 -26 31 -51 27 -56 44 -83 57 -92 6 -4 6 -8 1 -8 -5
0 0 -10 12 -23 12 -13 20 -26 16 -29 -3 -4 4 -11 15 -18 12 -6 21 -15 21 -20
0 -6 13 -24 30 -42 16 -17 30 -35 30 -39 0 -5 7 -9 16 -9 8 0 13 -4 9 -10 -3
-5 6 -16 19 -25 14 -9 28 -25 31 -36 4 -10 13 -19 21 -19 7 0 27 -14 42 -30
16 -17 32 -30 36 -30 3 0 15 -8 25 -17 38 -35 50 -43 65 -43 8 0 16 -4 18 -9
2 -5 10 -11 18 -13 8 -2 22 -10 31 -18 27 -23 138 -76 163 -78 5 0 12 -5 15
-11 6 -10 47 -21 86 -24 11 -1 23 -5 26 -10 6 -9 38 -17 149 -38 64 -12 370
-19 385 -8 6 4 30 9 55 12 46 5 53 6 130 27 25 7 51 13 58 13 6 0 12 3 12 7 0
3 10 6 22 7 11 1 24 6 27 10 3 4 13 10 21 12 8 2 20 4 25 6 6 1 24 8 40 15 17
7 33 13 37 12 3 -1 11 5 18 13 6 7 18 11 26 8 8 -3 14 0 14 7 0 6 4 9 9 5 5
-3 12 -1 16 4 3 6 32 25 65 43 33 18 60 36 60 40 0 5 7 8 15 8 7 0 18 8 24 18
5 9 13 17 18 17 4 0 7 3 5 8 -1 4 7 7 18 7 11 0 23 7 26 15 4 8 11 15 16 15 6
0 19 10 29 22 11 11 19 18 19 14 0 -4 12 6 26 23 14 17 32 31 40 31 8 0 14 4
14 9 0 15 53 71 67 71 7 0 13 6 13 13 0 15 47 67 61 67 6 0 8 4 4 9 -3 5 5 20
18 33 12 13 24 28 26 33 7 21 28 45 34 38 4 -3 7 0 7 9 0 8 14 34 30 56 17 23
30 46 30 52 0 5 5 10 12 10 6 0 9 3 5 6 -3 3 3 21 13 39 34 60 39 70 64 123
14 28 23 52 19 52 -3 0 -1 6 4 13 10 12 23 53 22 71 -1 5 4 12 11 16 6 4 12
18 12 31 1 13 7 31 13 39 7 8 11 29 10 47 0 17 3 29 7 27 4 -3 9 6 9 20 1 14
3 31 4 36 1 6 3 15 4 21 0 5 6 7 12 3 7 -4 7 1 -1 15 -8 16 -8 26 0 36 8 9 8
14 0 17 -7 2 -6 15 5 41 12 28 12 37 3 37 -8 0 -9 3 -3 8 15 11 17 94 2 89 -7
-2 -13 -12 -15 -23 -2 -10 -6 -26 -9 -34 -3 -8 -5 -21 -4 -27 1 -7 -3 -13 -9
-13 -5 0 -9 -3 -8 -7 4 -18 -15 -83 -24 -83 -5 0 -6 -4 -3 -10 3 -5 -3 -17
-14 -27 -11 -9 -18 -20 -15 -25 3 -5 0 -15 -6 -23 -7 -8 -9 -15 -6 -15 4 0 0
-7 -8 -16 -9 -8 -16 -22 -16 -30 0 -9 -6 -22 -12 -29 -25 -28 -33 -40 -50 -77
-10 -21 -23 -38 -28 -38 -6 0 -8 -4 -5 -10 3 -5 1 -10 -6 -10 -7 0 -9 -3 -6
-6 3 -4 -5 -15 -18 -26 -14 -11 -25 -24 -25 -30 0 -6 -12 -23 -27 -38 -16 -15
-36 -36 -45 -46 -10 -10 -26 -28 -37 -38 -11 -10 -18 -23 -14 -29 3 -6 1 -7
-5 -4 -9 6 -30 -10 -121 -93 -15 -14 -34 -25 -42 -25 -8 0 -13 -6 -11 -13 1
-8 -2 -11 -7 -8 -5 3 -14 -1 -21 -9 -7 -8 -16 -12 -21 -9 -5 3 -9 0 -9 -5 0
-6 -5 -11 -11 -11 -6 0 -23 -9 -39 -20 -15 -11 -30 -17 -34 -13 -3 3 -6 1 -6
-5 0 -7 -7 -12 -15 -12 -8 0 -23 -9 -32 -20 -12 -14 -20 -16 -29 -9 -9 7 -17
3 -28 -13 -11 -15 -16 -17 -16 -8 0 13 -2 13 -10 0 -5 -8 -10 -11 -10 -6 0 5
-7 2 -17 -5 -9 -8 -19 -13 -22 -12 -3 1 -15 0 -27 -3 -11 -3 -27 -6 -35 -8 -8
-2 -27 -9 -44 -16 -16 -7 -43 -13 -60 -14 -16 -1 -34 -4 -40 -8 -10 -6 -343
-2 -402 5 -18 2 -36 6 -39 10 -4 4 -16 7 -26 7 -10 0 -18 4 -18 9 0 5 -13 7
-30 6 -16 -1 -30 1 -30 5 0 7 -32 18 -57 21 -5 1 -17 6 -28 12 -11 6 -24 11
-28 12 -4 0 -12 7 -17 15 -5 8 -10 12 -10 7 0 -10 -83 32 -92 47 -4 6 -8 7 -8
3 0 -5 -7 -2 -15 5 -35 31 -45 38 -59 38 -8 0 -17 8 -20 18 -3 9 -21 25 -38
35 -18 10 -41 31 -50 47 -9 17 -25 30 -34 30 -10 0 -15 2 -12 5 3 4 -10 23
-29 45 -19 21 -34 41 -33 45 1 4 -7 14 -17 23 -29 27 -54 72 -47 84 4 6 3 8
-3 5 -6 -4 -21 14 -34 38 -13 25 -28 45 -33 45 -4 0 -6 9 -3 20 3 11 2 20 -3
20 -7 0 -38 77 -44 110 -1 8 -8 28 -14 44 -7 16 -14 38 -17 50 -2 11 -4 21 -5
21 -1 0 -4 18 -6 40 -6 52 -11 80 -14 80 -1 0 -3 34 -5 75 -2 41 -4 75 -5 75
-1 0 -3 26 -4 58 -1 33 3 57 9 57 5 0 3 5 -5 10 -11 7 -12 14 -4 27 6 10 10
33 9 51 0 17 2 32 6 32 12 0 17 37 7 54 -5 9 -5 16 0 16 5 0 9 6 10 13 4 25 9
53 17 87 5 19 10 38 11 43 1 4 3 9 4 12 1 3 3 9 4 14 0 5 4 13 9 17 4 4 7 14
7 22 0 8 6 28 14 45 12 28 25 59 31 77 11 32 36 79 44 82 5 1 11 12 13 23 1
11 13 31 26 45 12 14 22 28 22 32 0 3 6 13 13 20 17 19 35 48 50 81 7 15 16
24 20 21 4 -4 10 2 14 12 4 10 33 45 65 78 32 32 58 63 58 69 0 6 3 8 6 5 3
-3 22 9 42 28 20 19 48 44 62 57 29 27 59 41 79 38 7 -1 11 1 8 6 -3 4 1 14 9
21 8 7 14 10 14 7 0 -4 7 1 16 9 8 9 19 14 23 11 5 -2 16 4 26 15 10 11 22 17
26 14 5 -3 9 0 9 5 0 6 7 11 15 11 8 0 15 5 15 10 0 6 -9 10 -20 10 -11 0 -20
-4 -20 -8z"/>
<path d="M6223 5336 c3 -8 -2 -16 -15 -19 -11 -3 -17 -10 -14 -16 4 -5 -3 -12
-14 -16 -11 -3 -23 -17 -26 -31 -3 -13 -10 -24 -15 -24 -5 0 -9 -7 -9 -15 0
-8 -4 -15 -9 -15 -4 0 -19 -20 -32 -44 -13 -25 -25 -43 -28 -41 -4 5 -51 -81
-54 -100 -1 -5 -10 -18 -19 -29 -10 -11 -18 -28 -18 -38 0 -10 -5 -18 -12 -18
-6 0 -8 -3 -5 -6 4 -4 0 -19 -7 -33 -18 -33 -30 -64 -28 -73 1 -5 -3 -8 -9 -8
-5 0 -8 -4 -4 -9 3 -5 -1 -16 -9 -24 -8 -8 -12 -17 -9 -21 3 -3 1 -11 -4 -18
-12 -15 -28 -86 -24 -107 1 -7 -2 -10 -7 -7 -5 3 -8 -7 -7 -22 1 -15 -2 -33
-8 -39 -5 -7 -7 -24 -5 -38 3 -13 0 -26 -6 -28 -7 -2 -11 -46 -12 -119 -1 -64
-5 -121 -9 -127 -3 -6 -3 -11 2 -11 4 0 8 -40 7 -90 0 -49 2 -90 6 -90 4 0 8
-15 9 -32 4 -70 8 -98 18 -110 6 -7 9 -23 8 -35 -1 -13 2 -23 7 -23 5 0 7 -4
3 -9 -3 -5 -1 -12 3 -15 5 -3 8 -17 7 -31 -2 -14 1 -25 6 -25 5 0 9 -9 9 -20
0 -12 9 -38 20 -60 11 -22 20 -48 20 -59 0 -11 4 -21 10 -23 5 -1 11 -12 12
-23 2 -11 16 -42 31 -69 15 -27 27 -54 27 -60 0 -6 7 -20 15 -30 8 -10 12 -24
8 -30 -3 -6 -2 -8 2 -3 8 7 40 -50 36 -66 0 -4 6 -10 14 -13 8 -3 12 -10 9
-15 -3 -5 0 -9 5 -9 6 0 11 -9 11 -19 0 -11 10 -27 23 -36 12 -8 21 -19 21
-23 -2 -9 8 -36 15 -42 3 -3 20 -25 36 -50 17 -25 36 -51 43 -58 7 -8 9 -19 5
-25 -3 -7 -3 -9 2 -5 8 8 45 -33 45 -51 0 -6 5 -11 11 -11 5 0 7 -4 4 -10 -3
-5 0 -10 7 -10 14 0 44 -39 40 -52 -1 -5 5 -8 13 -8 8 0 15 -5 15 -10 0 -6 12
-22 26 -35 15 -14 25 -25 22 -25 -3 0 12 -19 33 -41 22 -23 39 -46 39 -51 0
-5 5 -6 10 -3 6 3 10 1 10 -5 0 -16 225 -240 240 -240 7 0 11 -3 8 -6 -8 -7
73 -84 89 -84 7 0 12 -3 11 -7 -2 -5 -1 -8 2 -8 12 0 37 -31 32 -39 -3 -5 0
-6 5 -3 6 4 27 -9 47 -28 21 -19 39 -35 42 -35 11 0 2 29 -16 48 -11 12 -20
24 -20 27 0 3 -9 15 -20 27 -11 12 -20 28 -20 35 0 7 -7 13 -15 13 -8 0 -14 3
-13 8 3 14 -22 62 -32 62 -5 0 -10 3 -9 8 2 15 -14 52 -22 52 -5 0 -9 5 -9 10
0 6 -12 29 -27 53 -15 23 -28 48 -29 56 -2 8 -9 18 -16 22 -7 5 -8 9 -3 9 6 0
4 4 -3 9 -7 4 -14 15 -16 24 -1 9 -12 28 -24 41 -14 16 -17 28 -11 32 8 4 7 9
-2 14 -7 5 -14 16 -15 25 -1 9 -10 25 -20 36 -9 10 -14 19 -9 19 4 0 2 7 -5
15 -7 8 -9 15 -4 15 5 0 5 4 -1 8 -12 9 -37 70 -38 95 -1 9 -8 17 -15 17 -8 0
-12 6 -9 14 3 8 0 22 -8 32 -7 10 -11 24 -8 31 3 7 1 13 -5 13 -8 0 -27 67
-22 79 1 2 -3 7 -9 11 -6 3 -13 15 -16 26 -2 10 -13 42 -23 71 -11 28 -18 54
-16 56 3 2 -2 17 -11 33 -8 16 -15 37 -15 46 0 9 -4 19 -9 23 -6 3 -10 13 -10
23 -1 35 -5 52 -11 52 -3 0 -6 8 -7 18 -3 41 -8 62 -14 62 -3 0 -6 13 -7 30 0
16 -4 35 -8 42 -5 7 -9 22 -11 33 -5 35 -10 60 -12 60 -4 0 -12 39 -16 80 -8
71 -16 120 -22 135 -7 18 -13 53 -17 102 -1 20 -8 44 -15 52 -9 11 -9 15 1 19
7 3 8 6 3 6 -6 1 -10 17 -9 36 1 19 -1 35 -5 35 -4 0 -7 30 -8 66 -1 39 -6 70
-13 74 -9 5 -9 13 -1 27 5 11 8 23 5 26 -7 7 -14 91 -18 207 -1 47 -6 91 -10
98 -4 7 -3 12 1 12 5 0 9 9 9 20 0 11 -3 20 -7 20 -11 0 -9 351 2 371 7 13 6
19 -1 19 -6 0 -8 5 -4 12 4 7 8 36 9 65 1 39 -3 53 -13 53 -8 0 -12 -6 -9 -14z"/>
<path d="M4348 4032 c-3 -11 0 -19 7 -19 7 0 10 8 7 19 -2 10 -6 18 -7 18 -1
0 -5 -8 -7 -18z"/>
<path d="M306 2171 c-3 -9 -21 -77 -40 -151 -19 -74 -69 -265 -111 -425 -118
-446 -145 -549 -145 -557 0 -5 51 -8 113 -8 l112 0 30 125 c16 69 32 126 35
126 19 5 393 3 400 -1 5 -3 22 -60 38 -125 l29 -120 116 -3 116 -3 -10 33 c-6
18 -12 40 -14 49 -2 9 -30 119 -64 245 -52 198 -114 436 -126 484 -2 8 -24 89
-48 180 l-44 165 -191 1 c-169 1 -192 0 -196 -15z m279 -402 c37 -149 65 -273
62 -276 -8 -7 -276 -10 -287 -3 -6 4 104 487 125 547 15 42 37 -19 100 -268z"/>
<path d="M1099 2171 c-4 -113 -2 -171 6 -172 6 -1 39 -2 75 -3 l65 -1 0 -385
0 -385 -74 0 -74 0 0 -95 -1 -95 355 0 c345 1 355 1 411 23 64 26 122 76 158
137 21 35 24 53 25 145 0 81 -4 112 -17 136 -25 46 -72 90 -118 110 -22 10
-40 24 -40 31 0 7 18 22 40 33 89 46 133 125 133 240 0 149 -84 249 -238 285
-32 8 -165 12 -377 12 -297 1 -328 -1 -329 -16z m658 -204 c18 -10 40 -28 49
-42 22 -34 22 -114 -1 -148 -32 -50 -67 -60 -207 -63 l-128 -2 0 138 0 138
128 -2 c98 -2 134 -6 159 -19z m-4 -471 c68 -28 95 -113 63 -191 -24 -56 -61
-68 -213 -71 l-133 -2 0 137 c0 76 2 140 4 142 12 11 246 -1 279 -15z"/>
<path d="M2230 2151 c-1 -120 -1 -1016 -1 -1063 l1 -58 109 0 109 0 0 578 1
578 -110 1 -109 1 0 -37z"/>
<path d="M2666 2181 c-2 -3 -3 -264 -3 -578 l0 -573 373 0 374 0 0 100 c0 73
-3 100 -12 101 -7 0 -119 1 -248 1 -129 0 -242 2 -251 4 -14 4 -16 52 -15 462
1 251 -2 464 -6 473 -6 13 -25 16 -108 16 -55 0 -102 -3 -104 -6z"/>
<path d="M3564 2182 c-6 -5 -10 -198 -10 -580 l0 -573 111 3 110 3 0 576 0
576 -100 1 c-55 1 -105 -2 -111 -6z"/>
<path d="M3924 2176 c-3 -7 -4 -52 -2 -101 l3 -88 165 -1 165 -1 2 -450 c1
-247 2 -462 2 -477 l1 -28 109 0 109 0 0 463 c0 254 1 469 1 478 1 14 21 16
154 17 83 0 159 1 167 1 13 1 15 18 15 99 l0 97 -443 1 c-339 1 -445 -1 -448
-10z"/>
<path d="M4870 2177 c0 -5 17 -42 39 -81 21 -39 78 -147 126 -241 48 -93 118
-228 155 -300 l68 -130 -1 -195 0 -195 110 -3 111 -3 -1 199 0 199 53 104 c29
57 74 145 100 194 26 50 91 174 144 276 l96 187 -124 -1 -124 0 -121 -247
c-69 -140 -127 -247 -134 -247 -8 0 -67 108 -135 248 l-122 247 -120 -1 c-71
0 -120 -4 -120 -10z"/>
<path d="M6390 1609 l0 -579 373 0 374 0 0 100 c1 96 0 100 -20 101 -12 0
-131 1 -264 1 l-243 1 0 476 0 477 -110 1 -110 1 0 -579z"/>
<path d="M7287 2181 c-2 -3 -3 -262 -3 -576 l1 -570 110 0 110 0 1 565 c0 311
-2 570 -4 577 -4 12 -210 16 -215 4z"/>
<path d="M7726 2182 c-3 -3 -6 -263 -6 -579 l0 -574 108 3 107 3 0 500 c0 423
2 500 14 500 10 0 41 -118 117 -450 57 -247 108 -474 114 -502 l11 -53 210 0
209 0 0 579 0 579 -107 -1 -108 -2 -2 -499 c-1 -274 -4 -501 -8 -504 -11 -11
-25 14 -35 63 -12 57 -10 47 -51 226 -31 137 -98 432 -104 459 -21 97 -57 245
-60 250 -5 8 -401 10 -409 2z"/>
<path d="M8827 2181 c-2 -3 -3 -262 -3 -576 l1 -570 110 0 110 0 0 233 c0 266
-1 264 75 171 25 -31 110 -135 190 -232 l144 -177 143 0 c79 0 143 2 143 4 0
3 -45 58 -101 123 -176 206 -358 421 -377 445 -12 15 -5 28 64 110 43 51 81
95 84 98 3 3 52 61 110 130 57 69 107 127 110 130 12 11 90 108 90 113 0 2
-62 5 -138 4 l-138 0 -184 -228 c-102 -125 -192 -228 -200 -228 -13 -1 -15 31
-15 226 l0 228 -108 1 c-59 1 -109 -1 -110 -5z"/>
</g>
</svg>
